<svg width="72" height="72" viewBox="0 0 72 72" fill="none" xmlns="http://www.w3.org/2000/svg">
<path fill-rule="evenodd" clip-rule="evenodd" d="M64.769 40.2143L64.6641 40.3443C64.4864 40.5527 64.1955 40.5923 63.9693 40.4388L60.2287 37.8988C59.5061 37.4112 58.5467 38.0645 58.7583 38.9191L60.9235 47.809L58.5887 47.4543C58.0523 47.3717 57.5456 47.7561 57.49 48.2937L56.5932 56.2052C55.8419 55.9814 55.0744 55.7664 54.2988 55.5661L55.0502 47.7265C55.0824 47.4082 54.9452 47.0947 54.7029 46.8927L52.5459 45.1316L55.527 35.1777C55.6239 34.8521 55.5431 34.4983 55.3088 34.2486L50.809 29.4362C50.2211 28.8226 51.1347 27.9139 51.7622 28.444L56.6014 32.5643C56.658 32.6209 56.7226 32.6757 56.7953 32.729L64.7124 39.4724C64.9306 39.66 64.963 39.9929 64.769 40.2143ZM52.4166 55.1124L53.0952 48.0532L50.8412 46.212C50.6877 46.0892 50.5827 45.9269 50.5261 45.7491V48.7592C50.5261 50.8629 49.9283 52.7873 48.7973 54.399C50.0253 54.6074 51.2371 54.845 52.4166 55.1124ZM48.6115 48.7591C48.6115 51.4533 47.3917 53.7817 45.1699 55.3158L35.5967 61.9397L26.0232 55.3158C23.8097 53.7817 22.5897 51.4535 22.5897 48.7591V34.8652C27.2431 34.1098 32.0823 31.6991 35.5965 28.3917C38.8038 31.3565 43.958 34.3062 48.6114 34.9033L48.6115 48.7591ZM18.8008 55.1083C19.9722 54.8425 21.1759 54.6066 22.3959 54.399C21.273 52.7873 20.667 50.8629 20.667 48.7592V34.0315C20.667 33.5475 21.0305 33.138 21.5153 33.0807C22.7595 32.9328 24.0278 32.6476 25.2881 32.2478V27.1889L23.325 29.4372C23.0099 29.7975 22.614 30.0544 22.1697 30.1966C22.0647 30.3929 21.9354 30.5788 21.7819 30.746L17.5808 35.2329L18.7523 45.0365C18.8088 45.485 18.7927 46.5634 18.7684 48.5912C18.7442 50.6164 18.7119 53.2526 18.8008 55.1083ZM14.6241 56.1988C14.0262 49.6051 12.7057 45.3232 12.4508 38.6533C12.4256 37.8928 11.5705 37.4853 10.9562 37.8988L7.21584 40.4388C6.98962 40.5923 6.69888 40.5527 6.52104 40.3443L6.408 40.2125C6.22224 39.9928 6.24643 39.66 6.47266 39.4725L14.3899 32.7292L19.423 28.4441C20.0606 27.9054 20.9526 28.8347 20.3763 29.4363L15.8764 34.2488C15.6825 34.4547 15.5936 34.7375 15.626 35.017L16.846 45.2633C16.8864 45.6075 16.8702 47.1126 16.854 48.5684C16.8299 50.8661 16.7975 53.6492 16.9026 55.5647C16.1267 55.7643 15.3674 55.9759 14.6241 56.1988ZM9.52632 29.4824C9.52632 31.3843 11.7423 32.4007 13.1698 31.2484C14.8821 29.8663 13.8599 27.2284 11.7802 27.2284C10.5362 27.2284 9.52632 28.2398 9.52632 29.4824ZM24.246 21.6484L21.0792 26.6879C21.5607 26.9539 21.9384 27.3251 22.194 27.8166L25.5224 24.0042C26.1046 23.3418 27.2028 23.7476 27.2028 24.6343V31.5424C29.9334 30.4034 32.5104 28.7368 34.5545 26.7316C34.0698 20.6926 32.4459 19.1625 31.4846 18.7973C29.4487 18.0185 27.4372 18.4621 25.4902 20.1126C24.8842 20.6304 24.6983 20.9278 24.246 21.6484ZM29.6425 11.9975C30.8867 11.9975 31.8966 13.0089 31.8966 14.2506C31.8966 15.4932 30.8867 16.5038 29.6425 16.5038C28.3984 16.5038 27.3967 15.4931 27.3967 14.2506C27.3967 13.0089 28.3984 11.9975 29.6425 11.9975ZM49.6295 33.0758C50.1303 33.1064 50.5263 33.5258 50.5263 34.0315V45.189L53.5316 35.156L49.4034 30.7458C49.2499 30.5787 49.1206 30.3928 49.0156 30.1965C48.5712 30.0544 48.1753 29.7975 47.8603 29.437L45.8971 27.1888V32.3051C47.1655 32.7251 48.4258 33.0015 49.6295 33.0758ZM39.6926 18.7973C38.7393 19.1625 37.1154 20.691 36.6227 26.7267C38.4565 28.4878 41.1469 30.3184 43.9743 31.5642V24.6342C43.9743 23.7585 45.0763 23.3368 45.6628 24.0041L48.9912 27.8164C49.247 27.3248 49.6231 26.9546 50.1061 26.6878L46.9392 21.6482C46.4868 20.9276 46.301 20.6303 45.687 20.1124C43.7481 18.4621 41.7365 18.0203 39.6926 18.7973ZM41.5345 11.9975C42.7787 11.9975 43.7885 13.0089 43.7885 14.2506C43.7885 15.4932 42.7787 16.5038 41.5345 16.5038C40.2984 16.5038 39.2885 15.4931 39.2885 14.2506C39.2885 13.0089 40.2985 11.9975 41.5345 11.9975ZM46.1637 9.86066C47.409 9.99803 47.9585 11.4383 48.1753 12.6034C47.3242 11.3666 46.0973 10.852 44.6449 11.474C44.4995 11.3076 44.3379 11.1533 44.1602 11.0127C44.9438 10.1789 45.5982 9.79917 46.1637 9.86066ZM59.4048 27.2284C57.3532 27.2284 56.3622 29.7715 57.9021 31.1547C59.3536 32.4584 61.6588 31.4188 61.6588 29.4824C61.6588 28.2398 60.6489 27.2284 59.4048 27.2284ZM64.8418 28.0404C64.6155 27.9661 64.2036 28.0072 63.4602 28.5195C64.2751 28.3377 65.0547 28.5095 65.6335 29.1205C65.484 28.5328 65.2909 28.1875 64.8418 28.0404ZM65.9566 38.0128L60.6165 33.4693C61.99 33.0516 63.0644 31.9432 63.436 30.5513C63.8643 30.3461 64.1066 30.3485 64.1794 30.3929C64.3167 30.4688 64.5106 30.8057 64.6318 31.5102C64.751 32.2358 64.7531 33.1924 64.7531 33.8862C64.7531 34.8611 66.0563 35.2051 66.5385 34.3612C67.7197 32.3123 68.6287 27.2659 65.4398 26.2186C64.4057 25.8794 63.4039 26.2703 62.588 26.7946C61.8205 25.889 60.6815 25.3114 59.405 25.3114C57.2964 25.3114 55.5515 26.8852 55.2768 28.9186L52.9986 26.9846C52.7724 26.7874 52.5139 26.6395 52.2553 26.5361C52.215 26.4529 52.1664 26.3697 52.1179 26.2898L48.5633 20.629C48.0786 19.8655 47.7635 19.3606 46.9313 18.6529C46.1638 17.9961 45.364 17.4888 44.5481 17.1316C45.5626 16.075 45.9415 14.6278 45.5661 13.1738C45.7518 13.1189 45.9134 13.1165 46.0427 13.1689C47.075 13.5816 47.6542 16.4952 47.9493 17.8465C48.1594 18.8087 49.4882 18.8686 49.7912 17.9458C50.4455 15.9601 50.5748 11.9998 49.1207 9.73538C48.4501 8.69642 47.4968 8.08082 46.3739 7.95482C44.7016 7.76978 43.3282 9.00343 42.3507 10.1612C39.7991 9.64307 37.3661 11.6167 37.3661 14.2506C37.3661 15.4002 37.8347 16.4416 38.5942 17.197C37.2692 17.8869 36.2674 19.3403 35.5889 21.5434C34.9183 19.3403 33.9166 17.8869 32.5917 17.197C33.3511 16.4416 33.8115 15.4003 33.8115 14.2506C33.8115 11.9514 31.9452 10.0804 29.6428 10.0804C27.3485 10.0804 25.4742 11.9514 25.4742 14.2506C25.4742 15.3679 25.9184 16.3827 26.6376 17.1315C25.8215 17.4886 25.0217 17.9959 24.2544 18.6527C23.4222 19.3605 23.099 19.8653 22.6224 20.6288L19.0678 26.2896C19.0192 26.3697 18.9708 26.4528 18.9304 26.536C18.6638 26.6394 18.4134 26.7873 18.1791 26.9844L15.909 28.9185C15.6342 26.8851 13.8892 25.3113 11.7806 25.3113C9.47822 25.3113 7.61199 27.1823 7.61199 29.4824C7.61199 31.3583 8.85614 32.9482 10.5608 33.4709L5.22879 38.0128C4.20279 38.8862 4.08154 40.43 4.95403 41.4551L5.05901 41.5869C5.87491 42.5386 7.26451 42.7268 8.29858 42.0248L10.6332 40.4389C11.0517 46.5847 12.2013 50.4769 12.7499 56.7944C11.3039 57.2825 9.92232 57.8155 8.62157 58.3908C7.67808 58.8086 7.97501 60.2271 9.00936 60.2271C9.13867 60.2271 9.26784 60.2005 9.38909 60.1439C13.5497 58.306 18.5666 56.9108 23.9147 56.0956C24.2378 56.3776 24.569 56.6434 24.9326 56.8931L35.0554 63.8941C35.383 64.1229 35.818 64.1177 36.146 63.8941L46.2606 56.8931C46.6242 56.6434 46.9634 56.3777 47.2785 56.0956C52.6267 56.9108 57.6436 58.306 61.8042 60.1439C62.2725 60.3566 62.8466 60.1514 63.0645 59.6559C63.2827 59.172 63.0645 58.6057 62.5798 58.3908C61.2791 57.8173 59.8977 57.2848 58.4516 56.7985L59.2838 49.4992L62.0467 49.9193C62.7244 50.0221 63.2856 49.3977 63.1212 48.7454L61.2066 40.8832L62.8871 42.0246C63.9212 42.7266 65.3108 42.5384 66.1186 41.5867L66.2316 41.455C67.1039 40.43 66.9826 38.8862 65.9566 38.0128ZM35.7824 35.5043L35.1442 36.2992L39.523 39.782L40.1531 38.987L35.7824 35.5043ZM34.1667 44.5016L37.3497 40.5026L34.9341 38.5781L31.7431 42.5772L34.1667 44.5016ZM33.3184 47.5756L33.9486 46.7805L29.5779 43.2977L28.9397 44.0928L33.3184 47.5756ZM34.3444 34.2327L33.585 35.1819C33.096 35.7981 33.0654 36.6635 33.4881 37.3131L30.1919 41.4551C29.4729 41.1902 28.6409 41.3969 28.1399 42.0264L27.3804 42.9756C26.7584 43.7608 26.8877 44.9057 27.6713 45.5309L32.2036 49.1372C32.9884 49.7635 34.1304 49.6301 34.7564 48.8472L35.5078 47.8971C36.0071 47.274 36.0354 46.4263 35.6047 45.7668L36.4772 44.6794L44.8065 51.3113C45.2169 51.6447 45.8209 51.5724 46.1475 51.1594C46.4787 50.745 46.4141 50.1424 45.994 49.8119L37.6648 43.18L38.9089 41.6248C39.6295 41.9009 40.4778 41.6656 40.9609 41.0536L41.7122 40.1044C42.3494 39.3087 42.2032 38.1649 41.4295 37.5491L36.8973 33.9428C36.1151 33.3201 34.9667 33.4424 34.3444 34.2327ZM30.2404 53.314H40.1854C39.9374 52.8582 39.741 52.3477 39.224 52.3477H31.2018C30.6871 52.3477 30.4847 52.8651 30.2404 53.314ZM41.6475 51.9769C41.1143 50.9945 40.2337 50.4306 39.2239 50.4306H31.2016C30.1918 50.4306 29.3112 50.9945 28.786 51.9769L27.7923 53.819C27.4596 54.45 27.9095 55.2312 28.6406 55.2312H41.7928C42.4989 55.2312 42.9807 54.4647 42.6331 53.819L41.6475 51.9769Z" fill="white"/>
</svg>
